<svg xmlns="http://www.w3.org/2000/svg" viewBox="0 0 437.72 111.28"><path d="M243.6 65.97h25.75v24.51H243.6z"/><path d="M334.2 41.34v-15.1h-13.12V6.68h-24.5v19.56h-4.84v-.74C291 14.48 283 0 258.82 0c-21.41 0-30.65 12.66-33.24 26.24l-10.42 36.89h-.24l-10.28-36.89H178.4l2.81 7.62c-4-6.21-11.12-9.23-18.65-9.23-10.4 0-15.84 3.59-20.05 8.54h-.25V2.1H94.07l-11 55.33h-.25L72.41 2.1h-24L37.75 56.69h-.24L26.74 2.1H0l24 88.38h26.62l9.29-53.84h.25l9.53 53.84h26.49l21.57-77v77h24.51V56.57c0-10.28 5.57-12.38 9.78-12.38 7.18 0 8.05 5.2 8.05 12.62v33.67h24.5V46.42a28.42 28.42 0 0 0-.31-4.23l5 13.63c1.36 3.72 10.76 27.36 10.76 30.45 0 2.85-.86 4.09-2.35 4.83-1.73.87-5 .62-7.43.62h-5.69v19.56h11.14c9.53 0 19.43.12 25.87-7.92 3.84-4.83 6.07-12.14 8.05-17.83l21.27-59.41a7.15 7.15 0 0 1 7.18-5.12c4.58 0 7.18 2.23 7.18 6.32 0 5.57-7.67 7.54-11.51 9.65-9.53 5.32-8.91 16.71-8.66 21.79H268c0-5.7 1.37-8 6.94-11.14 3.78-2.07 7.68-3.71 10.76-6.4v.08h10.9V72c0 17.57 11.51 19.18 21.9 19.18 5.2 0 10.77-.74 15.72-.74V71.92a43.3 43.3 0 0 1-5.57.37c-6.19 0-7.55-2.6-7.55-8.54V41.34z" fill-rule="evenodd" fill="#fff"/><path d="M386.27 69.59l50.09-50.1-14.92-14.92-50.15 50.14V3.16l-21.15 21.06v66.52h66.53l21.05-21.15h-51.45z"/></svg>