<svg xmlns="http://www.w3.org/2000/svg" viewBox="0 0 90.08 30.1"><defs><style>.cls-1,.cls-2{fill:#c8c2bf;}.cls-2{fill-rule:evenodd;}.cls-3{fill:#fff;}</style></defs><title>microsite_mobile</title><g id="Layer_2" data-name="Layer 2"><g id="Layer_1-2" data-name="Layer 1"><rect class="cls-1" x="64.69" y="9.79" width="3.82" height="3.64"/><path class="cls-2" d="M78.14,6.14V3.89h-2V1H72.55v2.9h-.72a.37.37,0,0,0,0-.11C71.73,2.15,70.53,0,67,0A4.55,4.55,0,0,0,62,3.89L60.47,9.37h0L58.91,3.89H55L55.43,5a3.19,3.19,0,0,0-2.77-1.37,3.51,3.51,0,0,0-3,1.26h0V.31H42.5L40.86,8.52h0L39.28.31H35.72l-1.58,8.1h0L32.5.31h-4L32.1,13.43h3.95l1.38-8h0l1.42,8h3.93L46,2V13.43h3.64v-5c0-1.53.83-1.84,1.45-1.84,1.07,0,1.2.77,1.2,1.87v5h3.63V6.89a4.26,4.26,0,0,0,0-.63l.74,2c.2.55,1.6,4.06,1.6,4.51s-.13.61-.35.72a2.94,2.94,0,0,1-1.1.09h-.85v2.91h1.66c1.41,0,2.88,0,3.84-1.18a9.17,9.17,0,0,0,1.19-2.65l3.15-8.81a1.07,1.07,0,0,1,1.07-.76c.68,0,1.07.33,1.07.94,0,.83-1.14,1.12-1.71,1.43-1.42.79-1.33,2.48-1.29,3.24h3.4a1.57,1.57,0,0,1,1-1.66,8.45,8.45,0,0,0,1.6-1v0h1.61v4.55c0,2.61,1.71,2.85,3.25,2.85.78,0,1.6-.11,2.34-.11V10.67a5.79,5.79,0,0,1-.83.06c-.92,0-1.12-.39-1.12-1.27V6.14Z"/><path class="cls-1" d="M26.55,11.22a2.38,2.38,0,0,1-.86.16,1.66,1.66,0,0,1-1.31-.51,2.25,2.25,0,0,1-.53-1.32h6.9a6.39,6.39,0,0,0-1.27-4.26,5.06,5.06,0,0,0-4.08-1.5,5.14,5.14,0,0,0-2,.39A4.7,4.7,0,0,0,21.8,5.25a4.77,4.77,0,0,0-1,1.58c-.05.12-.07.25-.11.37V7a3.58,3.58,0,0,0-.26-1.41,2.82,2.82,0,0,0-.72-1,3.11,3.11,0,0,0-1-.59,3.59,3.59,0,0,0-1.22-.2,4,4,0,0,0-1.81.35A4,4,0,0,0,14.5,5h0V.48H0V3.81H3.63v9.64h4V3.81h3.23v9.64h3.6v-5a2.56,2.56,0,0,1,.14-.91A1.52,1.52,0,0,1,14.94,7a1.21,1.21,0,0,1,.46-.27,1.77,1.77,0,0,1,.5-.07,1.28,1.28,0,0,1,.63.13.88.88,0,0,1,.36.38,2,2,0,0,1,.15.59c0,.22,0,.47,0,.75v4.94h3.59V10.39a4.26,4.26,0,0,0,.15.47,4.24,4.24,0,0,0,1.11,1.55,4.93,4.93,0,0,0,1.68.95,6.4,6.4,0,0,0,2.09.33,6.81,6.81,0,0,0,1.57-.18,5.75,5.75,0,0,0,1.4-.55A4.31,4.31,0,0,0,29.79,12a3.91,3.91,0,0,0,.76-1.32H27.19A1.27,1.27,0,0,1,26.55,11.22ZM24.45,6.5a1.85,1.85,0,0,1,1.27-.41,1.52,1.52,0,0,1,1.14.47,1.57,1.57,0,0,1,.44,1.11H23.87A2,2,0,0,1,24.45,6.5Z"/><path class="cls-1" d="M79.74,4h3.78v3.6H79.74Zm0,5.84h3.78v3.59H79.74Z"/><polygon class="cls-3" points="8.63 24.45 8.6 24.45 6.74 16.82 1.06 16.82 1.06 29.8 4.83 29.8 4.83 21.48 4.87 21.48 7.12 29.8 10.1 29.8 12.36 21.48 12.39 21.48 12.39 29.8 16.17 29.8 16.17 16.82 10.48 16.82 8.63 24.45"/><rect class="cls-3" x="16.84" y="16.82" width="3.6" height="2.53"/><rect class="cls-3" x="16.84" y="20.37" width="3.6" height="9.43"/><path class="cls-3" d="M26.83,27a1.25,1.25,0,0,1-1,.4,1.59,1.59,0,0,1-.83-.19,1.36,1.36,0,0,1-.48-.53,2.44,2.44,0,0,1-.22-.75,7.92,7.92,0,0,1-.05-.85,7.77,7.77,0,0,1,.05-.85,2.44,2.44,0,0,1,.22-.75A1.29,1.29,0,0,1,25,23a1.5,1.5,0,0,1,.83-.21,1.29,1.29,0,0,1,.91.31,1.26,1.26,0,0,1,.4.89h3.41a3.89,3.89,0,0,0-.49-1.7A3.8,3.8,0,0,0,29,21.06a4.31,4.31,0,0,0-1.48-.7,6.74,6.74,0,0,0-1.76-.23,5.71,5.71,0,0,0-2,.35,4.93,4.93,0,0,0-1.63,1,4.86,4.86,0,0,0-1.09,1.57,5.07,5.07,0,0,0-.4,2,5.18,5.18,0,0,0,.4,2,4.71,4.71,0,0,0,1.09,1.56,4.9,4.9,0,0,0,1.63,1,5.71,5.71,0,0,0,2,.35,6.17,6.17,0,0,0,1.8-.26A5,5,0,0,0,29.08,29a4.37,4.37,0,0,0,1.07-1.26A4.53,4.53,0,0,0,30.7,26H27.27A1.64,1.64,0,0,1,26.83,27Z"/><path class="cls-3" d="M57.31,23.06a4.78,4.78,0,0,0-1.18-.7,8.86,8.86,0,0,0-1.34-.47c-.46-.13-.91-.24-1.35-.34a11.15,11.15,0,0,1-1.19-.32,3.46,3.46,0,0,1-.86-.4.75.75,0,0,1-.36-.57.73.73,0,0,1,.14-.45,1,1,0,0,1,.37-.26,2.15,2.15,0,0,1,.47-.13l.45,0a2.56,2.56,0,0,1,.62.07,1.63,1.63,0,0,1,.57.25,1.31,1.31,0,0,1,.39.42,1,1,0,0,1,.08.62H57.9a4.39,4.39,0,0,0-.49-2,3.88,3.88,0,0,0-1.2-1.31,5.25,5.25,0,0,0-1.71-.72,9.48,9.48,0,0,0-2-.21,7.87,7.87,0,0,0-1.94.24,4.83,4.83,0,0,0-1.67.77,3.89,3.89,0,0,0-1.62,3.27,2.91,2.91,0,0,0,.4,1.61,3.52,3.52,0,0,0,1,1,5.53,5.53,0,0,0,1.41.65c.53.16,1,.32,1.56.46L53,25a7,7,0,0,1,.85.33,1.15,1.15,0,0,1,.44.33.7.7,0,0,1,.12.42,1,1,0,0,1-.16.59,1.25,1.25,0,0,1-.42.37,1.75,1.75,0,0,1-.53.18,3.44,3.44,0,0,1-.54,0l-.57,0a2.21,2.21,0,0,1-.55-.15,1.61,1.61,0,0,1-.47-.29,1.23,1.23,0,0,1-.32-.47,2.57,2.57,0,0,1-.14-.85H47.31c0-.13,0-.24,0-.37A5.66,5.66,0,0,0,47,23.19a4.35,4.35,0,0,0-.93-1.58,4.52,4.52,0,0,0-1.6-1.08,6.81,6.81,0,0,0-4.6,0,4.61,4.61,0,0,0-1.6,1.08A3.36,3.36,0,0,0,38,22V20.28a4,4,0,0,0-1.06-.15,2.75,2.75,0,0,0-1.6.44,3.58,3.58,0,0,0-1,1.3h0V20.35H30.79v9.44h3.6V26.07a3.41,3.41,0,0,1,.55-2.19,2,2,0,0,1,1.63-.66,4,4,0,0,1,.78.06,5.76,5.76,0,0,0,0,3.67,4.56,4.56,0,0,0,.93,1.58,4.5,4.5,0,0,0,1.6,1.09,6.66,6.66,0,0,0,4.6,0,4.41,4.41,0,0,0,1.6-1.09A4.6,4.6,0,0,0,47,27c0,.06,0,.14.06.21a4.58,4.58,0,0,0,.83,1.27,4,4,0,0,0,1.15.83,7.37,7.37,0,0,0,1.27.49,7.08,7.08,0,0,0,1.2.24,8.55,8.55,0,0,0,.93.05,10.56,10.56,0,0,0,2.16-.22,6,6,0,0,0,1.92-.75,4,4,0,0,0,1.38-1.37,3.91,3.91,0,0,0,.53-2.13,3.33,3.33,0,0,0-.31-1.51A3.18,3.18,0,0,0,57.31,23.06ZM43.7,25.86a2.38,2.38,0,0,1-.21.76,1.53,1.53,0,0,1-.47.57,1.64,1.64,0,0,1-1.64,0,1.53,1.53,0,0,1-.47-.57,2.38,2.38,0,0,1-.21-.76,7.09,7.09,0,0,1,0-.79,7.21,7.21,0,0,1,0-.79,2.19,2.19,0,0,1,.21-.74,1.62,1.62,0,0,1,.47-.57A1.64,1.64,0,0,1,43,23a1.62,1.62,0,0,1,.47.57,2.19,2.19,0,0,1,.21.74,7.29,7.29,0,0,1,0,.79A7.13,7.13,0,0,1,43.7,25.86Z"/><rect class="cls-3" x="58.55" y="16.82" width="3.6" height="2.53"/><path class="cls-3" d="M75.25,27.05a1.27,1.27,0,0,1-.64.51,2.43,2.43,0,0,1-.87.16,1.67,1.67,0,0,1-1.3-.5,2.22,2.22,0,0,1-.53-1.33h6.9a6.39,6.39,0,0,0-1.27-4.26,6,6,0,0,0-6.11-1.11,4.7,4.7,0,0,0-1.57,1.07,4.88,4.88,0,0,0-1,1.58,5.38,5.38,0,0,0,0,3.92c-.18,0-.35,0-.53,0a1.08,1.08,0,0,1-.9-.29,1.73,1.73,0,0,1-.21-1V22.58h1.93V20.37H67.2V17.5H63.61v2.87H58.55v9.42h3.59V22.58h1.47v4.51a3.24,3.24,0,0,0,.29,1.52,2.07,2.07,0,0,0,.74.85,2.58,2.58,0,0,0,1,.36,7.46,7.46,0,0,0,1.14.08,11.45,11.45,0,0,0,1.17,0q.6-.06,1.14-.06V27.66A4.32,4.32,0,0,0,70,28.75a4.8,4.8,0,0,0,1.68.95,6.51,6.51,0,0,0,2.1.33,6.79,6.79,0,0,0,1.56-.18,4.93,4.93,0,0,0,1.4-.55,4.35,4.35,0,0,0,1.13-.92,4.05,4.05,0,0,0,.76-1.33Zm-2.74-4.2a1.78,1.78,0,0,1,1.27-.41,1.51,1.51,0,0,1,1.14.46A1.58,1.58,0,0,1,75.36,24H71.93A1.87,1.87,0,0,1,72.51,22.85Z"/><polygon class="cls-3" points="83.01 16.52 77.92 30.1 80.68 30.1 85.77 16.52 83.01 16.52"/><polygon class="cls-3" points="87.32 16.52 82.24 30.1 85 30.1 90.08 16.52 87.32 16.52"/></g></g></svg>