<svg xmlns="http://www.w3.org/2000/svg" viewBox="0 0 95.94 9.09"><defs><style>.cls-1,.cls-2{fill:#c8c2bf;}.cls-2{fill-rule:evenodd;}.cls-3{fill:#fff;}</style></defs><title>thewhyt_microsite</title><g id="Layer_2" data-name="Layer 2"><g id="Layer_1-2" data-name="Layer 1"><rect class="cls-1" x="35.61" y="5.39" width="2.1" height="2"/><path class="cls-2" d="M43,3.38V2.14H41.94V.55h-2V2.14h-.4s0,0,0-.06c-.07-.9-.72-2.08-2.7-2.08a2.51,2.51,0,0,0-2.71,2.14l-.85,3h0l-.84-3H30.28l.23.63A1.74,1.74,0,0,0,29,2a2,2,0,0,0-1.64.7h0V.17H23.39l-.9,4.52h0L21.62.17h-2l-.87,4.46h0L17.89.17H15.71l2,7.22h2.17L20.6,3h0l.78,4.4h2.17L25.33,1.1V7.39h2V4.62c0-.84.46-1,.8-1,.59,0,.66.43.66,1V7.39h2V3.79a1.87,1.87,0,0,0,0-.34l.41,1.11a24.1,24.1,0,0,1,.88,2.49c0,.23-.07.33-.19.39a1.62,1.62,0,0,1-.6,0h-.47v1.6h.91a2.43,2.43,0,0,0,2.11-.65A4.88,4.88,0,0,0,34.47,7l1.74-4.86a.57.57,0,0,1,.58-.41c.38,0,.59.18.59.52s-.63.61-.94.78a1.79,1.79,0,0,0-.71,1.78H37.6a.87.87,0,0,1,.57-.91,4.75,4.75,0,0,0,.88-.52h.89V5.89c0,1.43.94,1.56,1.79,1.56.42,0,.88-.06,1.28-.06V5.88a3.4,3.4,0,0,1-.45,0c-.51,0-.62-.22-.62-.7V3.38Z"/><path class="cls-1" d="M14.61,6.17a1.27,1.27,0,0,1-.47.09A.91.91,0,0,1,13.42,6a1.21,1.21,0,0,1-.29-.73h3.8a3.5,3.5,0,0,0-.7-2.34A2.81,2.81,0,0,0,14,2.08a2.9,2.9,0,0,0-1.12.22,2.59,2.59,0,0,0-.86.59,2.65,2.65,0,0,0-.56.87,1.66,1.66,0,0,0-.06.21V3.84a1.87,1.87,0,0,0-.15-.78,1.34,1.34,0,0,0-.39-.54,2,2,0,0,0-.57-.33,2.14,2.14,0,0,0-.67-.11,2.16,2.16,0,0,0-1,.2A2.14,2.14,0,0,0,8,2.77H8V.26H0V2.09H2V7.4H4.2V2.09H6V7.4H8V4.66A1.22,1.22,0,0,1,8,4.16a.74.74,0,0,1,.19-.31.64.64,0,0,1,.25-.15,1.26,1.26,0,0,1,.27,0,.7.7,0,0,1,.35.08A.43.43,0,0,1,9.29,4a.8.8,0,0,1,.09.32c0,.12,0,.26,0,.41V7.4h2V5.72a2.58,2.58,0,0,0,.08.26,2.4,2.4,0,0,0,.61.85,2.64,2.64,0,0,0,.93.52,3.76,3.76,0,0,0,2,.08,2.47,2.47,0,0,0,.77-.3,2.31,2.31,0,0,0,.62-.51,2.18,2.18,0,0,0,.42-.73H15A.68.68,0,0,1,14.61,6.17ZM13.46,3.58a1,1,0,0,1,.7-.23.85.85,0,0,1,.87.87H13.14A1.06,1.06,0,0,1,13.46,3.58Z"/><path class="cls-1" d="M43.89,2.22H46v2H43.89Zm0,3.21H46v2H43.89Z"/><polygon class="cls-3" points="51.1 4.48 51.08 4.48 50.06 0.28 46.93 0.28 46.93 7.42 49.01 7.42 49.01 2.84 49.03 2.84 50.27 7.42 51.91 7.42 53.15 2.84 53.17 2.84 53.17 7.42 55.25 7.42 55.25 0.28 52.12 0.28 51.1 4.48"/><rect class="cls-3" x="55.62" y="0.28" width="1.98" height="1.39"/><rect class="cls-3" x="55.62" y="2.23" width="1.98" height="5.19"/><path class="cls-3" d="M61.12,5.89a.69.69,0,0,1-.53.22A.89.89,0,0,1,60.13,6a.73.73,0,0,1-.26-.29,1.31,1.31,0,0,1-.12-.41,3.7,3.7,0,0,1,0-.94A1.31,1.31,0,0,1,59.87,4a.73.73,0,0,1,.26-.29.81.81,0,0,1,.46-.12.74.74,0,0,1,.5.17.69.69,0,0,1,.22.49h1.88a2.21,2.21,0,0,0-.27-.93,2,2,0,0,0-.59-.66,2.33,2.33,0,0,0-.81-.38,3.44,3.44,0,0,0-1-.13,3.11,3.11,0,0,0-1.1.2,2.62,2.62,0,0,0-.89.55,2.77,2.77,0,0,0-.6.86,2.7,2.7,0,0,0-.22,1.12A2.73,2.73,0,0,0,58,6a2.77,2.77,0,0,0,.6.86,2.78,2.78,0,0,0,.89.55,3.1,3.1,0,0,0,1.1.19,3.53,3.53,0,0,0,1-.14A2.42,2.42,0,0,0,62.35,7a2.3,2.3,0,0,0,.59-.69,2.54,2.54,0,0,0,.31-.94H61.36A.89.89,0,0,1,61.12,5.89Z"/><path class="cls-3" d="M77.89,3.72a2.44,2.44,0,0,0-.64-.39,5,5,0,0,0-.74-.26l-.75-.19c-.24,0-.46-.11-.65-.17a2.31,2.31,0,0,1-.47-.22.44.44,0,0,1-.2-.32.36.36,0,0,1,.08-.24.43.43,0,0,1,.2-.15A1.11,1.11,0,0,1,75,1.71l.25,0a1.32,1.32,0,0,1,.34,0,.87.87,0,0,1,.31.14.66.66,0,0,1,.21.23.54.54,0,0,1,0,.34h2.08A2.25,2.25,0,0,0,78,1.35a2.08,2.08,0,0,0-.66-.72,2.65,2.65,0,0,0-.94-.4A5,5,0,0,0,75.24.11a4.24,4.24,0,0,0-1.07.14,2.77,2.77,0,0,0-.92.42,2.22,2.22,0,0,0-.65.74,2.18,2.18,0,0,0-.24,1.06,1.61,1.61,0,0,0,.22.89,1.9,1.9,0,0,0,.56.57,3.1,3.1,0,0,0,.78.36l.86.25.76.23A2.59,2.59,0,0,1,76,5a.58.58,0,0,1,.24.18.35.35,0,0,1,.07.23.58.58,0,0,1-.09.33.74.74,0,0,1-.23.2,1,1,0,0,1-.3.1l-.29,0-.32,0a1,1,0,0,1-.3-.08,1,1,0,0,1-.26-.16.62.62,0,0,1-.17-.26A1.4,1.4,0,0,1,74.28,5H72.39a1.36,1.36,0,0,0,0-.2,3.22,3.22,0,0,0-.17-1,2.4,2.4,0,0,0-.52-.87,2.45,2.45,0,0,0-.88-.6,3.19,3.19,0,0,0-1.26-.22,3.28,3.28,0,0,0-1.27.22,2.54,2.54,0,0,0-.88.6c-.06.07-.11.15-.17.23v-1a2.38,2.38,0,0,0-.58-.08,1.43,1.43,0,0,0-.88.25,1.9,1.9,0,0,0-.58.71h0V2.22H63.3v5.2h2v-2a1.88,1.88,0,0,1,.3-1.2,1.11,1.11,0,0,1,.9-.37,1.69,1.69,0,0,1,.43,0,2.92,2.92,0,0,0-.16,1,3.29,3.29,0,0,0,.17,1,2.38,2.38,0,0,0,.51.87,2.54,2.54,0,0,0,.88.6,3.28,3.28,0,0,0,1.27.22,3.19,3.19,0,0,0,1.26-.22,2.45,2.45,0,0,0,.88-.6,2.41,2.41,0,0,0,.5-.84s0,.08,0,.11a2.27,2.27,0,0,0,1.09,1.16,5,5,0,0,0,.7.27,3.34,3.34,0,0,0,.66.13l.51,0a5.93,5.93,0,0,0,1.19-.12,3.55,3.55,0,0,0,1.06-.41,2.3,2.3,0,0,0,.76-.76,2.2,2.2,0,0,0,.29-1.17,1.89,1.89,0,0,0-.17-.83A1.65,1.65,0,0,0,77.89,3.72ZM70.4,5.26a1.13,1.13,0,0,1-.11.41A.9.9,0,0,1,70,6a.9.9,0,0,1-.9,0,.9.9,0,0,1-.26-.32,1.39,1.39,0,0,1-.12-.41c0-.15,0-.3,0-.44s0-.28,0-.43A1.31,1.31,0,0,1,68.87,4a.79.79,0,0,1,.26-.31.84.84,0,0,1,.9,0,.79.79,0,0,1,.26.31,1.08,1.08,0,0,1,.11.41,3.22,3.22,0,0,1,0,.43A3.37,3.37,0,0,1,70.4,5.26Z"/><rect class="cls-3" x="78.58" y="0.28" width="1.98" height="1.39"/><path class="cls-3" d="M87.77,5.91a.7.7,0,0,1-.35.28,1.36,1.36,0,0,1-.48.09A.91.91,0,0,1,86.22,6a1.3,1.3,0,0,1-.29-.73h3.8A3.5,3.5,0,0,0,89,2.93a2.78,2.78,0,0,0-2.25-.83,2.68,2.68,0,0,0-1.11.22,2.53,2.53,0,0,0-.87.59,2.82,2.82,0,0,0-.56.87,3,3,0,0,0,0,2.15L84,6c-.25,0-.42,0-.49-.16a.92.92,0,0,1-.12-.53V3.45H84.4V2.23H83.34V.65h-2V2.23H78.58V7.42h2v-4h.8V5.93a2,2,0,0,0,.16.84,1.27,1.27,0,0,0,.41.47,1.55,1.55,0,0,0,.57.2,4.64,4.64,0,0,0,.63,0c.22,0,.43,0,.65,0l.62,0V6.24a2.36,2.36,0,0,0,.47.61,2.64,2.64,0,0,0,.93.52A3.55,3.55,0,0,0,87,7.55a3.49,3.49,0,0,0,.86-.1,3.09,3.09,0,0,0,.77-.3,2.29,2.29,0,0,0,1-1.24ZM86.26,3.6a1,1,0,0,1,.7-.23.84.84,0,0,1,.63.26.85.85,0,0,1,.24.61H85.94A1.11,1.11,0,0,1,86.26,3.6Z"/><polygon class="cls-3" points="92.04 0.11 89.24 7.59 90.76 7.59 93.56 0.11 92.04 0.11"/><polygon class="cls-3" points="94.42 0.11 91.62 7.59 93.14 7.59 95.94 0.11 94.42 0.11"/></g></g></svg>