<svg xmlns="http://www.w3.org/2000/svg" viewBox="0 0 45.97 9.09"><defs><style>.cls-1,.cls-2{fill:#fff;}.cls-2{fill-rule:evenodd;}</style></defs><title>thewhyt</title><g id="Layer_2" data-name="Layer 2"><g id="Layer_1-2" data-name="Layer 1"><rect class="cls-1" x="35.61" y="5.39" width="2.1" height="2"/><path class="cls-2" d="M43,3.38V2.14H41.94V.55h-2V2.14h-.4s0,0,0-.06c-.07-.9-.72-2.08-2.7-2.08a2.51,2.51,0,0,0-2.71,2.14l-.85,3h0l-.84-3H30.28l.23.63A1.74,1.74,0,0,0,29,2a2,2,0,0,0-1.64.7h0V.17H23.39l-.9,4.52h0L21.62.17h-2l-.87,4.46h0L17.89.17H15.71l2,7.22h2.17L20.6,3h0l.78,4.4h2.17L25.33,1.1V7.39h2V4.62c0-.84.46-1,.8-1,.59,0,.66.43.66,1V7.39h2V3.79a1.87,1.87,0,0,0,0-.34l.41,1.11a24.1,24.1,0,0,1,.88,2.49c0,.23-.07.33-.19.39a1.62,1.62,0,0,1-.6,0h-.47v1.6h.91a2.43,2.43,0,0,0,2.11-.65A4.88,4.88,0,0,0,34.47,7l1.74-4.86a.57.57,0,0,1,.58-.41c.38,0,.59.18.59.52s-.63.61-.94.78a1.79,1.79,0,0,0-.71,1.78H37.6a.87.87,0,0,1,.57-.91,4.75,4.75,0,0,0,.88-.52h.89V5.89c0,1.43.94,1.56,1.79,1.56.42,0,.88-.06,1.28-.06V5.88a3.4,3.4,0,0,1-.45,0c-.51,0-.62-.22-.62-.7V3.38Z"/><path class="cls-1" d="M14.61,6.17a1.27,1.27,0,0,1-.47.09A.91.91,0,0,1,13.42,6a1.21,1.21,0,0,1-.29-.73h3.8a3.5,3.5,0,0,0-.7-2.34A2.81,2.81,0,0,0,14,2.08a2.9,2.9,0,0,0-1.12.22,2.59,2.59,0,0,0-.86.59,2.65,2.65,0,0,0-.56.87,1.66,1.66,0,0,0-.06.21V3.84a1.87,1.87,0,0,0-.15-.78,1.34,1.34,0,0,0-.39-.54,2,2,0,0,0-.57-.33,2.14,2.14,0,0,0-.67-.11,2.16,2.16,0,0,0-1,.2A2.14,2.14,0,0,0,8,2.77H8V.26H0V2.09H2V7.4H4.2V2.09H6V7.4H8V4.66A1.22,1.22,0,0,1,8,4.16a.74.74,0,0,1,.19-.31.64.64,0,0,1,.25-.15,1.26,1.26,0,0,1,.27,0,.7.7,0,0,1,.35.08A.43.43,0,0,1,9.29,4a.8.8,0,0,1,.09.32c0,.12,0,.26,0,.41V7.4h2V5.72a2.58,2.58,0,0,0,.08.26,2.4,2.4,0,0,0,.61.85,2.64,2.64,0,0,0,.93.52,3.76,3.76,0,0,0,2,.08,2.47,2.47,0,0,0,.77-.3,2.31,2.31,0,0,0,.62-.51,2.18,2.18,0,0,0,.42-.73H15A.68.68,0,0,1,14.61,6.17ZM13.46,3.58a1,1,0,0,1,.7-.23.85.85,0,0,1,.87.87H13.14A1.06,1.06,0,0,1,13.46,3.58Z"/><path class="cls-1" d="M43.89,2.22H46v2H43.89Zm0,3.21H46v2H43.89Z"/></g></g></svg>