<svg xmlns="http://www.w3.org/2000/svg" viewBox="0 0 653.42 217.56"><defs><style>.cls-1,.cls-2{fill:#fff;}.cls-2{fill-rule:evenodd;}</style></defs><title>whyt_logo</title><g id="Layer_2" data-name="Layer 2"><g id="Foreground"><rect class="cls-1" x="476.27" y="128.99" width="50.34" height="47.92"/><path class="cls-2" d="M653.42,80.83V51.31H627.77V13.07H579.85V51.31h-9.47c0-.49,0-1,0-1.46C569,28.32,553.23,0,506,0c-41.87,0-59.94,24.75-65,51.31l-20.36,72.11h-.49L400.11,51.31H348.8l5.49,14.89c-7.85-12.14-21.74-18-36.46-18-20.33,0-31,7-39.2,16.7h-.49V4.11H183.92L162.38,112.29h-.48L141.57,4.11H94.62L73.81,110.84h-.48L52.27,4.11H0L47,176.9H99L117.13,71.63h.49L136.25,176.9H188L230.23,26.29V176.9h47.91V110.6c0-20.09,10.89-24.2,19.12-24.2,14,0,15.73,10.16,15.73,24.68V176.9h47.92V90.75a54.23,54.23,0,0,0-.62-8.26l9.81,26.65c2.66,7.26,21,53.49,21,59.54,0,5.56-1.69,8-4.59,9.44-3.39,1.69-9.69,1.2-14.53,1.2H360.9v38.24h21.78c18.64,0,38,.24,50.58-15.49,7.51-9.43,11.86-23.71,15.73-34.84L490.55,51.07c2-5.79,6.54-9.93,14-9.93,8.95,0,14,4.36,14,12.34,0,10.89-15,14.76-22.51,18.88C477.48,82.76,478.69,105,479.18,115H524c0-11.13,2.66-15.73,13.55-21.78,7.4-4,15-7.25,21-12.49v.15h21.3v60c0,34.36,22.5,37.51,42.83,37.51,10.17,0,21.06-1.46,30.74-1.46V140.61a83,83,0,0,1-10.89.72c-12.1,0-14.76-5.08-14.76-16.7V80.83Z"/></g></g></svg>