<?xml version="1.0" standalone="no"?>
<!DOCTYPE svg PUBLIC "-//W3C//DTD SVG 20010904//EN"
 "http://www.w3.org/TR/2001/REC-SVG-20010904/DTD/svg10.dtd">
<svg version="1.0" xmlns="http://www.w3.org/2000/svg"
 width="300.000000pt" height="300.000000pt" viewBox="0 0 300.000000 300.000000"
 preserveAspectRatio="xMidYMid meet">
<metadata>
Created by potrace 1.11, written by Peter Selinger 2001-2013
</metadata>
<g transform="translate(0.000000,300.000000) scale(0.100000,-0.100000)"
fill="#000000" stroke="none">
<path d="M565 2845 c-82 -84 -244 -248 -359 -363 l-209 -211 854 0 c470 0 865
0 879 0 20 -1 -131 -157 -830 -856 l-855 -855 258 -257 257 -258 855 855 c470
470 856 853 856 850 1 -3 3 -394 4 -870 1 -476 3 -869 4 -873 0 -5 163 153
361 350 l360 358 0 1143 0 1142 -1142 -1 -1143 -1 -150 -153z"/>
</g>
</svg>
