<?xml version="1.0" standalone="no"?>
<!DOCTYPE svg PUBLIC "-//W3C//DTD SVG 20010904//EN"
 "http://www.w3.org/TR/2001/REC-SVG-20010904/DTD/svg10.dtd">
<svg version="1.0" xmlns="http://www.w3.org/2000/svg"
 width="300.000000pt" height="300.000000pt" viewBox="0 0 300.000000 300.000000"
 preserveAspectRatio="xMidYMid meet">
<metadata>
Created by potrace 1.11, written by Peter Selinger 2001-2013
</metadata>
<g transform="translate(0.000000,300.000000) scale(0.100000,-0.100000)"
fill="#000000" stroke="none">
<path d="M2277 2991 c-2 -3 -3 -396 -3 -873 1 -478 -1 -868 -4 -868 -3 0 -389
384 -857 852 l-853 853 -257 -257 -257 -257 856 -855 c470 -470 850 -857 844
-859 -6 -2 -399 -3 -873 -3 -475 1 -863 -1 -863 -5 0 -3 160 -166 355 -362
l355 -357 1140 0 1140 0 0 1142 0 1142 -360 357 c-198 196 -362 354 -363 350z"/>
</g>
</svg>
